<?xml version="1.0" encoding="utf-8"?>
<!-- Generator: Adobe Illustrator 16.0.0, SVG Export Plug-In . SVG Version: 6.00 Build 0)  -->
<!DOCTYPE svg PUBLIC "-//W3C//DTD SVG 1.1//EN" "http://www.w3.org/Graphics/SVG/1.1/DTD/svg11.dtd">
<svg version="1.1" id="Layer_1" xmlns="http://www.w3.org/2000/svg" xmlns:xlink="http://www.w3.org/1999/xlink" x="0px" y="0px"
	 width="700px" height="700px" viewBox="0 0 700 700" enable-background="new 0 0 700 700" xml:space="preserve">
<g>
	<path fill-rule="evenodd" clip-rule="evenodd" fill="#010101" d="M439.857,170.591c-31.115-20.322-61.926-40.399-92.656-60.609
		c-2.439-1.605-3.832-0.346-5.586,0.803c-25.576,16.709-51.158,33.408-76.739,50.117c-46.317,30.255-92.618,60.542-138.989,90.709
		c-2.716,1.765-3.878,3.516-3.827,6.968c0.219,14.688,0.021,29.379,0.152,44.07c0.027,3.027-0.4,4.349-3.814,4.311
		c-17.632-0.188-35.267-0.152-52.9-0.019c-2.819,0.019-3.553-0.845-3.531-3.686c0.119-15.47,0.15-30.943-0.021-46.413
		c-0.032-2.988,1.576-4.013,3.521-5.282c67.487-43.972,134.96-87.97,202.436-131.96c24.573-16.021,49.179-31.983,73.679-48.125
		c2.558-1.682,4.211-1.654,6.752,0.014c39.261,25.779,78.626,51.38,117.855,77.204c3.085,2.03,5.03,1.791,7.933-0.114
		c39.141-25.672,78.39-51.177,117.535-76.853c2.804-1.839,4.764-1.965,7.537-0.033c7.24,5.046,14.698,9.747,22.076,14.576
		c1.365,0.895,2.749,1.498,2.729,3.75c-0.114,12.129-0.053,24.26-0.053,37.154c-8.425-5.488-16.392-10.416-24.054-15.796
		c-3.167-2.218-5.428-2.322-8.765-0.246c-75.722,47.008-151.506,93.893-227.324,140.723c-2.401,1.483-3.114,3.111-3.087,5.926
		c0.155,15.004-0.014,30.003,0.149,45.008c0.036,3.217-0.705,4.215-3.943,4.165c-13.559-0.193-27.123-0.177-40.686-0.004
		c-2.869,0.034-3.484-0.872-3.462-3.681c0.129-15.47,0.164-30.945-0.035-46.415c-0.035-2.932,1.302-4.049,3.31-5.355
		c39.87-25.942,79.709-51.933,119.549-77.925C436.969,172.682,438.282,171.698,439.857,170.591z"/>
	<path fill-rule="evenodd" clip-rule="evenodd" fill="#020202" d="M65.577,384.668c-0.001-15.564,0.148-31.131-0.097-46.695
		c-0.066-4.409,0.99-6.214,5.71-5.931c6.401,0.381,12.86,0.395,19.257,0c4.968-0.306,6.125,1.489,6.08,6.278
		c-0.239,25.941,0.035,51.884-0.239,77.819c-0.058,5.127,1.145,6.666,6.419,6.488c12.831-0.423,25.702,0.217,38.528-0.287
		c6.554-0.256,5.655,3.547,5.592,7.486c-0.063,4.007,1.397,8.146-5.77,8.007c-23.213-0.437-46.445-0.293-69.666-0.007
		c-5.198,0.063-5.979-1.934-5.908-6.469C65.731,415.796,65.581,400.23,65.577,384.668z"/>
	<path fill-rule="evenodd" clip-rule="evenodd" fill="#010101" d="M348.668,384.979c-0.006,9.137,0.103,18.278-0.042,27.413
		c-0.089,5.524,2.423,8.81,7.652,10.234c5.357,1.463,10.746,1.42,16.1,0.154c5.189-1.221,8.09-4.403,7.858-10.021
		c-0.092-2.462,0.014-4.939,0.023-7.408c0.017-10.335,0.028-10.504-10.229-11.304c-3.007-0.236-3.472-1.279-3.646-3.967
		c-0.697-11.104-0.805-11.093,10.526-11.079c8.89,0.003,17.78,0.211,26.661-0.063c4.19-0.133,6.203,0.466,5.953,5.465
		c-0.466,9.115-0.087,18.273-0.135,27.411c-0.048,9.546-4.274,16.992-12.955,20.684c-21.414,9.097-43.232,8.883-64.743,0.405
		c-9.378-3.696-13.787-11.557-13.809-21.688c-0.022-17.529-0.022-35.066,0.008-52.603c0.017-10.841,5.217-18.639,15.169-22.318
		c20.129-7.449,40.659-7.509,60.771-0.121c12.406,4.554,17.877,16.006,15.687,28.679c-0.514,2.964-2.111,2.808-4.092,2.819
		c-3.707,0.018-7.41,0.053-11.108,0.005c-4.188-0.051-9.096,1.146-12.376-0.635c-3.988-2.166-0.845-7.65-1.799-11.563
		c-0.233-0.956-0.191-2.003-0.541-2.904c-2.07-5.338-11.236-7.968-21.332-5.987c-5.921,1.168-9.81,4.159-9.654,10.977
		C348.826,366.699,348.668,375.844,348.668,384.979z"/>
	<path fill-rule="evenodd" clip-rule="evenodd" fill="#020202" d="M188.957,384.813c0-15.313,0.183-30.633-0.106-45.944
		c-0.094-4.914,0.839-6.907,6.363-6.834c23.714,0.304,47.432,0.358,71.145-0.061c6.303-0.112,6.626,2.635,6.465,7.464
		c-0.156,4.649,0.58,8.492-6.588,8.141c-13.309-0.636-26.678,0.032-40.008-0.292c-4.865-0.117-7.249,0.664-6.649,6.229
		c0.815,7.534-3.133,17.698,1.604,21.973c4.121,3.725,14.097,0.982,21.482,1.067c3.706,0.041,7.479,0.465,11.101-0.086
		c6.848-1.043,8.124,1.857,8.09,8.151c-0.03,5.928-1.732,7.569-7.494,7.288c-9.615-0.462-19.271,0.066-28.895-0.217
		c-4.262-0.128-6.361,0.61-5.882,5.532c0.813,8.284-3.406,19.155,1.676,24.168c4.046,3.992,14.984,1.035,22.863,1.084
		c7.908,0.058,15.822,0.262,23.716-0.057c7.157-0.293,4.54,4.832,4.818,8.167c0.296,3.539,1.209,7.31-5.017,7.23
		c-24.453-0.287-48.912-0.203-73.369-0.035c-4.258,0.024-5.457-1.392-5.4-5.539C189.08,416.438,188.957,400.624,188.957,384.813z"/>
	<path fill-rule="evenodd" clip-rule="evenodd" fill="#010101" d="M488.631,385.779c0,15.532-0.138,31.069,0.088,46.602
		c0.063,4.216-1.258,5.573-5.412,5.396c-6.65-0.288-13.314-0.224-19.967-0.014c-3.601,0.11-5.246-0.663-5.222-4.814
		c0.165-32.055,0.136-64.11,0.041-96.17c-0.014-3.458,0.929-4.832,4.57-4.708c6.897,0.239,13.817,0.308,20.705-0.025
		c4.465-0.216,5.309,1.71,5.266,5.649C488.531,353.725,488.631,369.752,488.631,385.779z"/>
	<path fill="#010101" d="M637.24,431.072c-7.882-25.868-15.403-51.852-23.104-77.773c-2.035-6.835-2.323-15.814-6.903-19.82
		c-4.99-4.365-14.155-0.722-20.247-1.34c-6.153,0-11.14,0.42-16.021-0.107c-5.918-0.641-8.527,1.357-10.201,7.293
		c-8.023,28.401-16.602,56.643-24.979,84.938c-3.979,13.437-3.978,13.437,10.217,13.442c13.864,0,14.049,0.051,17.606-13.453
		c1.157-4.362,2.994-5.906,7.556-5.711c9.117,0.381,18.256,0.135,27.399,0.099c2.593-0.009,4.422,0.174,5.436,3.46
		c1.607,5.228,0.619,12.733,5.853,15.028c4.78,2.095,11.166,0.528,16.84,0.563c1.97,0.014,3.976-0.217,5.919,0.036
		C638.645,438.523,638.753,436.035,637.24,431.072z M594.585,404.337c-7.134-0.171-14.281-0.206-21.414,0
		c-3.946,0.115-3.649-1.566-2.823-4.469c4.433-15.552,8.707-31.158,13.598-48.774c4.983,17.854,9.377,33.655,13.813,49.439
		C598.579,403.459,597.592,404.407,594.585,404.337z"/>
	<path fill-rule="evenodd" clip-rule="evenodd" fill="#020202" d="M93.211,521.592c16.609,0,31.784-0.059,46.953,0.058
		c2.935,0.026,7.285-1.674,6.985,4.153c-0.265,5.173-4.267,3.367-6.828,3.382c-22.17,0.142-44.356,0.155-66.527-0.017
		c-2.653-0.02-6.651,2.076-7.843-1.974c-1.143-3.865-0.271-7.831,3.171-10.725c4.509-3.779,9.899-5.771,15.314-7.771
		c9.634-3.558,19.311-7.036,28.815-10.927c4.27-1.747,8.834-4.692,7.869-9.933c-1.069-5.821-7.046-5.505-11.265-5.166
		c-6.911,0.555-16.925-3.913-17.839,9.112c-0.15,2.104-2.822,1.799-4.595,1.813c-4.858,0.039-9.737,0.237-14.572-0.075
		c-2.4-0.156-5.978,1.76-6.985-2.07c-0.88-3.345-0.15-6.917,2.824-9.053c2.656-1.912,5.669-3.734,8.795-4.49
		c19.79-4.796,39.693-4.816,59.519-0.214c5.612,1.309,11.894,3.158,12.391,10.165c0.453,6.355-4.998,9.236-9.802,11.929
		c-10.384,5.805-21.953,8.57-32.956,12.776C102.086,514.316,96.642,515.028,93.211,521.592z"/>
	<path fill-rule="evenodd" clip-rule="evenodd" fill="#020202" d="M567.319,529.26c14.175-16.055,26.775-30.319,40.801-46.208
		c-7.297,0-13.133,0-18.972,0c-9.725,0-19.452,0.161-29.179-0.102c-2.729-0.072-7.303,2.314-7.46-3.541
		c-0.176-6.642,4.945-3.956,7.879-3.989c17.616-0.225,35.249-0.117,52.873-0.118c5.781,0,11.552-0.078,17.334,0.043
		c1.984,0.04,4.771-1.054,5.714,1.36c0.966,2.471,0.903,5.266-1.207,7.637c-12.716,14.305-25.387,28.643-37.99,43.045
		c-1.404,1.603-3.034,1.854-4.859,1.861C584.716,529.277,577.192,529.26,567.319,529.26z"/>
	<path fill="#020202" d="M474.495,493.16c0.986-9.234-3.984-13.617-11.805-15.466c-20.654-4.885-41.437-4.929-62.09,0.027
		c-7.861,1.883-12.766,6.347-11.853,15.496c0.564,5.704,0.648,11.571-0.001,17.252c-1.117,9.688,4.244,13.968,12.341,16.1
		c11.519,3.03,23.348,3.316,35.172,3.389c9.307-1.031,18.76-0.902,27.799-3.959c7.09-2.396,11.229-6.449,10.437-14.682
		C473.911,505.311,473.858,499.146,474.495,493.16z M446.396,501.601c0,0.607,0,1.219,0,1.826c0,17.938-5.181,21.893-23.106,17.932
		c-4.263-0.945-6.224-3.006-6.065-7.467c0.213-6.078,0.053-12.157,0.061-18.232c0-12.366,1.211-13.521,14.229-13.592
		c13.465-0.062,14.877,1.272,14.882,14.063C446.396,497.955,446.396,499.781,446.396,501.601z"/>
	<path fill="#020202" d="M311.887,510.713c-0.684-5.985-0.521-12.14-0.028-18.159c0.629-7.839-3.348-12.164-10.144-13.979
		c-21.789-5.818-43.729-5.694-65.521-0.049c-6.733,1.746-10.75,6.091-10.082,13.986c0.564,6.618,0.489,13.347,0.016,19.981
		c-0.537,7.441,3.266,11.043,9.608,13.402c9.271,3.449,19.028,3.239,28.887,4.313c11.576-0.074,23.403-0.355,34.911-3.393
		C307.632,524.68,312.981,520.408,311.887,510.713z M283.348,501.743c0,1.144,0,1.447,0,1.755c0,18.565-3.296,21.232-21.791,18.267
		c-5.07-0.815-7.559-3.036-7.373-8.351c0.223-6.075-0.126-12.157,0.096-18.23c0.157-4.273-1.887-10.064,4.306-11.546
		c7.663-1.83,16.417-3.624,22.815,1.557C286.265,489.132,282.396,496.708,283.348,501.743z"/>
</g>
</svg>
